<svg width="256" height="256" viewBox="0 0 256 256" fill="none" xmlns="http://www.w3.org/2000/svg">
<g clip-path="url(#clip0_46_49)">
<g clip-path="url(#clip1_46_49)">
<g clip-path="url(#clip2_46_49)">
<path d="M135.182 58.0855H197.914C205.626 58.0843 213.075 60.8873 218.872 65.9717C224.67 71.0561 228.421 78.0752 229.427 85.7208L229.63 87.7801L229.694 89.8648V185.203C229.695 193.271 226.627 201.038 221.112 206.928C215.599 212.817 208.05 216.389 199.999 216.918L197.914 216.982H58.0855C50.0171 216.983 42.2503 213.915 36.3606 208.401C30.4708 202.886 26.899 195.338 26.3697 187.287L26.3062 185.203V96.2207H90.7545L92.7121 96.119C96.5749 95.7234 100.225 94.1574 103.174 91.6318L104.585 90.2843L135.182 58.0855ZM91.9875 39.0179C95.4197 39.0179 98.7883 39.9458 101.712 41.6873L103.428 42.8314L120.182 55.4033L95.3689 81.526L94.6061 82.2251C93.7807 82.8456 92.8162 83.2555 91.7969 83.42L90.7672 83.509H26.3062V70.7972C26.305 62.7288 29.3726 54.962 34.8871 49.0723C40.4015 43.1825 47.9498 39.6107 56.0007 39.0814L58.0855 39.0179H91.9875Z" fill="#808080"/>
</g>
</g>
</g>
<defs>
<clipPath id="clip0_46_49">
<rect width="256" height="256" fill="white"/>
</clipPath>
<clipPath id="clip1_46_49">
<rect width="256" height="256" fill="white"/>
</clipPath>
<clipPath id="clip2_46_49">
<rect width="254.234" height="254.234" fill="white" transform="translate(0.88269 0.882797)"/>
</clipPath>
</defs>
</svg>
